<?xml version="1.0" encoding="UTF-8"?>
<svg xmlns="http://www.w3.org/2000/svg" xmlns:xlink="http://www.w3.org/1999/xlink" viewBox="0 0 10 10" width="10px" height="10px">
<g id="surface15099482">
<path style=" stroke:none;fill-rule:nonzero;fill:rgb(80.000001%,80.000001%,80.000001%);fill-opacity:1;" d="M 3.4375 1.042969 C 2.117188 1.042969 1.042969 2.117188 1.042969 3.4375 L 1.042969 6.5625 C 1.042969 7.882812 2.117188 8.957031 3.4375 8.957031 L 6.5625 8.957031 C 7.882812 8.957031 8.957031 7.882812 8.957031 6.5625 L 8.957031 3.4375 C 8.957031 2.117188 7.882812 1.042969 6.5625 1.042969 Z M 3.4375 1.667969 L 6.5625 1.667969 C 7.542969 1.667969 8.332031 2.457031 8.332031 3.4375 L 8.332031 6.5625 C 8.332031 7.542969 7.542969 8.332031 6.5625 8.332031 L 3.4375 8.332031 C 2.457031 8.332031 1.667969 7.542969 1.667969 6.5625 L 1.667969 3.4375 C 1.667969 2.457031 2.457031 1.667969 3.4375 1.667969 Z M 7.082031 2.5 C 6.851562 2.5 6.667969 2.6875 6.667969 2.917969 C 6.667969 3.148438 6.851562 3.332031 7.082031 3.332031 C 7.3125 3.332031 7.5 3.148438 7.5 2.917969 C 7.5 2.6875 7.3125 2.5 7.082031 2.5 Z M 5 2.917969 C 3.851562 2.917969 2.917969 3.851562 2.917969 5 C 2.917969 6.148438 3.851562 7.082031 5 7.082031 C 6.148438 7.082031 7.082031 6.148438 7.082031 5 C 7.082031 3.851562 6.148438 2.917969 5 2.917969 Z M 5 3.542969 C 5.808594 3.542969 6.457031 4.191406 6.457031 5 C 6.457031 5.808594 5.808594 6.457031 5 6.457031 C 4.191406 6.457031 3.542969 5.808594 3.542969 5 C 3.542969 4.191406 4.191406 3.542969 5 3.542969 Z M 5 3.542969 "/>
</g>
</svg>
