<?xml version="1.0" encoding="UTF-8"?>
<svg xmlns="http://www.w3.org/2000/svg" xmlns:xlink="http://www.w3.org/1999/xlink" viewBox="0 0 10 10" width="10px" height="10px">
<g id="surface14950742">
<path style=" stroke:none;fill-rule:nonzero;fill:rgb(80.000001%,80.000001%,80.000001%);fill-opacity:1;" d="M 9.332031 2.3125 C 9.015625 2.453125 8.671875 2.550781 8.3125 2.59375 C 8.679688 2.371094 8.960938 2.023438 9.09375 1.609375 C 8.75 1.8125 8.371094 1.960938 7.964844 2.039062 C 7.640625 1.695312 7.179688 1.480469 6.667969 1.480469 C 5.683594 1.480469 4.886719 2.273438 4.886719 3.257812 C 4.886719 3.394531 4.90625 3.53125 4.933594 3.660156 C 3.457031 3.585938 2.148438 2.878906 1.269531 1.804688 C 1.117188 2.066406 1.03125 2.371094 1.03125 2.699219 C 1.03125 3.316406 1.34375 3.859375 1.820312 4.175781 C 1.527344 4.167969 1.253906 4.089844 1.015625 3.957031 C 1.015625 3.964844 1.015625 3.96875 1.015625 3.976562 C 1.015625 4.839844 1.628906 5.558594 2.441406 5.722656 C 2.292969 5.761719 2.132812 5.785156 1.972656 5.785156 C 1.859375 5.785156 1.746094 5.773438 1.636719 5.75 C 1.863281 6.457031 2.519531 6.972656 3.300781 6.988281 C 2.691406 7.464844 1.925781 7.746094 1.089844 7.746094 C 0.949219 7.746094 0.804688 7.738281 0.667969 7.722656 C 1.453125 8.226562 2.386719 8.523438 3.390625 8.523438 C 6.664062 8.523438 8.449219 5.8125 8.449219 3.460938 C 8.449219 3.386719 8.449219 3.308594 8.445312 3.234375 C 8.792969 2.980469 9.09375 2.667969 9.332031 2.3125 Z M 9.332031 2.3125 "/>
</g>
</svg>
