<?xml version="1.0" encoding="UTF-8"?>
<svg xmlns="http://www.w3.org/2000/svg" xmlns:xlink="http://www.w3.org/1999/xlink" viewBox="0 0 10 10" width="10px" height="10px">
<g id="surface15066535">
<path style=" stroke:none;fill-rule:nonzero;fill:rgb(80.000001%,80.000001%,80.000001%);fill-opacity:1;" d="M 8.992188 2.578125 C 8.898438 2.21875 8.613281 1.9375 8.253906 1.839844 C 7.605469 1.667969 5 1.667969 5 1.667969 C 5 1.667969 2.394531 1.667969 1.746094 1.839844 C 1.386719 1.9375 1.101562 2.21875 1.007812 2.578125 C 0.832031 3.226562 0.832031 5 0.832031 5 C 0.832031 5 0.832031 6.773438 1.007812 7.421875 C 1.101562 7.78125 1.386719 8.0625 1.746094 8.160156 C 2.394531 8.332031 5 8.332031 5 8.332031 C 5 8.332031 7.605469 8.332031 8.253906 8.160156 C 8.613281 8.0625 8.898438 7.78125 8.992188 7.421875 C 9.167969 6.773438 9.167969 5 9.167969 5 C 9.167969 5 9.167969 3.226562 8.992188 2.578125 Z M 4.167969 6.082031 L 4.167969 3.917969 C 4.167969 3.757812 4.339844 3.65625 4.480469 3.738281 L 6.355469 4.820312 C 6.492188 4.898438 6.492188 5.101562 6.355469 5.179688 L 4.480469 6.261719 C 4.339844 6.34375 4.167969 6.242188 4.167969 6.082031 Z M 4.167969 6.082031 "/>
</g>
</svg>
